<svg width="28" height="28" viewBox="0 0 28 28" xmlns="http://www.w3.org/2000/svg">
  <path fill-rule="evenodd" clip-rule="evenodd"
    d="M18 10C18.552 10 19 10.4477 19 11V17C19 17.5523 18.552 18 18 18H17V18.5C17 19.3284 16.3284 20 15.5 20H10.5C9.67157 20 9 19.3284 9 18.5V13.5C9 12.6716 9.67157 12 10.5 12H11V11C11 10.4477 11.448 10 12 10H18ZM12 12H15.5C16.3284 12 17 12.6716 17 13.5V17H18V11H12V12ZM10 13.5C10 13.2239 10.2239 13 10.5 13H15.5C15.7761 13 16 13.2239 16 13.5V18.5C16 18.7761 15.7761 19 15.5 19H10.5C10.2239 19 10 18.7761 10 18.5V13.5Z" />
</svg>