<svg width="28" height="28" viewBox="0 0 28 28" xmlns="http://www.w3.org/2000/svg">
  <path fill-rule="evenodd" clip-rule="evenodd"
    d="M14.7068 15.0024L18.5959 11.1133C18.7919 10.9181 18.7919 10.6015 18.5959 10.4062C18.4009 10.2109 18.0839 10.2109 17.8889 10.4062L13.9998 14.2953L10.1108 10.4062C9.91584 10.2109 9.59884 10.2109 9.40384 10.4062C9.20784 10.6015 9.20784 10.9181 9.40384 11.1133L13.2928 15.0024L9.40384 18.8915C9.20784 19.0867 9.20784 19.4033 9.40384 19.5986C9.59884 19.7939 9.91584 19.7939 10.1108 19.5986L13.9998 15.7095L17.8889 19.5986C18.0839 19.7939 18.4009 19.7939 18.5959 19.5986C18.7919 19.4033 18.7919 19.0867 18.5959 18.8915L14.7068 15.0024Z" />
</svg>