<svg width="28" height="28" viewBox="0 0 28 28" xmlns="http://www.w3.org/2000/svg">
  <path fill-rule="evenodd" clip-rule="evenodd"
    d="M13.1464 9.14645C13.3417 8.95118 13.6583 8.95118 13.8536 9.14645L15.8536 11.1464C16.0488 11.3417 16.0488 11.6583 15.8536 11.8536L13.8536 13.8536C13.6583 14.0488 13.3417 14.0488 13.1464 13.8536C12.9512 13.6583 12.9512 13.3417 13.1464 13.1464L14.2929 12H14C11.7909 12 10 13.7909 10 16C10 18.2091 11.7909 20 14 20C16.2091 20 18 18.2091 18 16C18 15.7239 18.2239 15.5 18.5 15.5C18.7761 15.5 19 15.7239 19 16C19 18.7614 16.7614 21 14 21C11.2386 21 9 18.7614 9 16C9 13.2386 11.2386 11 14 11H14.2929L13.1464 9.85355C12.9512 9.65829 12.9512 9.34171 13.1464 9.14645Z" />
</svg>