<svg width="28" height="28" viewBox="0 0 28 28" xmlns="http://www.w3.org/2000/svg">
  <path fill-rule="evenodd" clip-rule="evenodd"
    d="M14.0006 14.692L10.465 18.2275C10.267 18.4255 9.95587 18.4255 9.75787 18.2275C9.55987 18.0295 9.55987 17.7184 9.75787 17.5204L13.2934 13.9849L9.75787 10.4493C9.55987 10.2514 9.55987 9.94024 9.75787 9.74225C9.95587 9.54425 10.267 9.54425 10.465 9.74225L14.0006 13.2778L17.5362 9.74225C17.7342 9.54425 18.0452 9.54425 18.2432 9.74225C18.4412 9.94024 18.4412 10.2514 18.2432 10.4493L14.7077 13.9849L18.2432 17.5204C18.4412 17.7184 18.4412 18.0295 18.2432 18.2275C18.0452 18.4255 17.7342 18.4255 17.5362 18.2275L14.0006 14.692Z" />
</svg>