<svg width="22" height="22" viewBox="0 0 22 22" fill="none" xmlns="http://www.w3.org/2000/svg">
  <path
    d="M11.5721 5.72C9.98813 5.72 8.71213 4.444 8.71213 2.86C8.71213 1.276 9.98813 0 11.5721 0C13.1561 0 14.4321 1.276 14.4321 2.86C14.4321 4.444 13.1451 5.72 11.5721 5.72ZM5.47813 7.997C4.03713 7.997 2.86013 6.82 2.86013 5.379C2.86013 3.938 4.02613 2.761 5.47813 2.761C6.93013 2.761 8.09613 3.927 8.09613 5.379C8.09613 6.831 6.91913 7.997 5.47813 7.997ZM2.89313 13.904C1.61713 13.904 0.58313 12.87 0.58313 11.594C0.58313 10.318 1.61713 9.284 2.89313 9.284C4.16913 9.284 5.20313 10.318 5.20313 11.594C5.20313 12.881 4.16913 13.904 2.89313 13.904ZM5.47813 19.767C4.40013 19.767 3.52013 18.898 3.52013 17.809C3.52013 16.731 4.38913 15.851 5.47813 15.851C6.55613 15.851 7.43613 16.731 7.43613 17.809C7.43613 18.887 6.55613 19.756 5.47813 19.767ZM11.5721 22C10.6261 22 9.86713 21.241 9.86713 20.295C9.86713 19.349 10.6261 18.59 11.5721 18.59C12.5181 18.59 13.2771 19.349 13.2771 20.295C13.2771 21.241 12.5181 22 11.5721 22ZM17.7541 19.118C16.9951 19.118 16.3791 18.502 16.3791 17.743C16.3791 16.984 16.9951 16.368 17.7541 16.368C18.5131 16.368 19.1291 16.984 19.1291 17.743C19.1291 18.502 18.5131 19.118 17.7541 19.118ZM20.2841 12.738C19.6571 12.738 19.1511 12.232 19.1511 11.605C19.1511 10.978 19.6571 10.472 20.2841 10.472C20.9111 10.472 21.4171 10.978 21.4171 11.605C21.4171 12.232 20.9111 12.738 20.2841 12.738ZM16.8741 5.467C16.8741 4.983 17.2701 4.587 17.7541 4.587C18.2381 4.587 18.6341 4.983 18.6341 5.467C18.6341 5.951 18.2381 6.347 17.7541 6.347C17.2701 6.347 16.8741 5.951 16.8741 5.467Z"
    fill="var(--icon-fill-color, black)" fill-opacity="0.4" />
</svg>