<svg width="215" height="49" viewBox="0 0 215 49" fill="none" xmlns="http://www.w3.org/2000/svg">
  <path fill-rule="evenodd" clip-rule="evenodd"
    d="M11.6328 25.8162C11.9383 25.3342 12.302 24.8773 12.7241 24.4453C14.252 22.8793 16.0964 22.0963 18.2573 22.0963C20.4182 22.0963 22.2627 22.8793 23.7906 24.4453C25.3186 26.0103 26.0825 27.9003 26.0825 30.1143H36.5161C36.5161 24.9483 34.7335 20.5383 31.1683 16.8853C27.603 13.2323 23.2994 11.4062 18.2573 11.4062C15.8858 11.4062 13.6777 11.8102 11.6329 12.6182L11.6328 25.8162Z"
    fill="url(#paint0_linear_4425_128587)" />
  <path fill-rule="evenodd" clip-rule="evenodd"
    d="M26.084 30.0778C26.084 32.2738 25.3201 34.1487 23.792 35.7017C22.2641 37.2551 20.4197 38.0317 18.2588 38.0317C16.0979 38.0317 14.2535 37.2547 12.7256 35.7017C11.1976 34.1487 10.4336 32.2738 10.4336 30.0778L10.4346 11.0707C10.4346 5.30774 5.76374 0.636719 0.00152587 0.636719L0 30.0778C0.000366211 35.2018 1.78296 39.5777 5.3479 43.2007C8.91315 46.8247 13.2168 48.6367 18.2588 48.6367C23.3008 48.6367 27.6045 46.8247 31.1697 43.2007C34.735 39.5767 36.5176 35.2028 36.5176 30.0778V29.7957H26.084V30.0778Z"
    fill="url(#paint1_linear_4425_128587)" />
  <path fill-rule="evenodd" clip-rule="evenodd"
    d="M191.359 16.4363C189.851 16.4363 188.628 15.2163 188.628 13.7123C188.628 12.2083 189.851 10.9883 191.359 10.9883C192.868 10.9883 194.091 12.2083 194.091 13.7123C194.091 15.2163 192.868 16.4363 191.359 16.4363ZM151.91 26.6033L151.909 12.6363C148.882 12.6363 146.428 15.0902 146.428 18.1172V19.0763C145.181 18.4783 143.811 18.1793 142.317 18.1793C139.669 18.1793 137.408 19.1193 135.535 20.9993C133.7 22.8413 132.764 25.0553 132.726 27.6443H132.725V27.7892C132.725 30.4262 133.661 32.6783 135.534 34.5433C137.408 36.4083 139.669 37.3412 142.317 37.3412C144.42 37.3412 146.278 36.7532 147.891 35.5782C148.89 36.6622 150.321 37.3412 151.91 37.3412V26.6033ZM61.0137 18.1172C61.0137 15.0902 58.5598 12.6363 55.5326 12.6363L55.5318 26.6033H55.5312V37.3412C57.1207 37.3412 58.5518 36.6622 59.5501 35.5782C61.1637 36.7532 63.0219 37.3412 65.1243 37.3412C67.7732 37.3412 70.034 36.4083 71.9072 34.5433C73.7801 32.6783 74.7167 30.4262 74.7167 27.7892V27.6443H74.7154C74.6774 25.0553 73.7413 22.8413 71.9071 20.9993C70.0341 19.1193 67.773 18.1793 65.1241 18.1793C63.6307 18.1793 62.2605 18.4783 61.0136 19.0763L61.0137 18.1172ZM100.087 20.9993C98.2522 22.8413 97.3162 25.0553 97.2782 27.6443H97.277V27.8083C97.2815 30.4383 98.218 32.6833 100.087 34.5433C101.96 36.4083 104.221 37.3412 106.87 37.3412C108.971 37.3412 110.828 36.7542 112.441 35.5812C113.439 36.6632 114.871 37.3412 116.462 37.3412V28.4723H116.441C116.455 28.2543 116.462 28.0323 116.462 27.8083V27.7892L116.461 18.4643C114.949 18.4643 113.579 19.0753 112.588 20.0633C110.941 18.8073 109.035 18.1793 106.87 18.1793C104.221 18.1793 101.96 19.1193 100.087 20.9993ZM177.912 18.2103C180.098 18.2103 181.838 18.8703 183.131 20.1913C184.424 21.5123 185.07 23.3473 185.07 25.6963V37.3412H179.713V26.4183C179.713 25.2873 179.413 24.4113 178.813 23.7923C178.212 23.1733 177.386 22.8633 176.334 22.8633C175.287 22.8633 174.464 23.1733 173.863 23.7923C173.263 24.4113 172.963 25.2873 172.963 26.4183V37.3412H167.606V26.4183C167.606 25.2873 167.305 24.4113 166.705 23.7923C166.105 23.1733 165.281 22.8633 164.234 22.8633C163.182 22.8633 162.356 23.1733 161.756 23.7923C161.155 24.4113 160.855 25.2873 160.855 26.4183V37.3412H155.467V18.3943H158.651C159.869 18.3943 160.855 19.3813 160.855 20.5983C161.404 19.8663 162.12 19.2853 163.003 18.8553C163.885 18.4253 164.883 18.2103 165.997 18.2103C167.321 18.2103 168.504 18.4943 169.545 19.0623C170.587 19.6253 171.4 20.4313 171.985 21.4813C172.596 20.5133 173.427 19.7283 174.479 19.1243C175.531 18.5143 176.675 18.2103 177.912 18.2103ZM92.7074 20.9933C90.8468 19.1383 88.6007 18.2103 85.9693 18.2103C83.338 18.2103 81.092 19.1383 79.2314 20.9933C77.3708 22.8483 76.4406 25.0883 76.4406 27.7123C76.4406 30.3363 77.3708 32.5763 79.2314 34.4313C81.0921 36.2873 83.338 37.2143 85.9693 37.2143C88.6007 37.2143 90.8468 36.2873 92.7074 34.4313C94.568 32.5763 95.4984 30.3363 95.4984 27.7123C95.4984 25.0883 94.568 22.8483 92.7074 20.9933ZM190.915 18.3312C192.669 18.3312 194.091 19.7533 194.091 21.5073L194.09 37.3483H188.628V18.3312H190.915ZM207.526 35.6302L205.208 31.9703L202.836 35.6523C202.208 36.6263 201.129 37.3463 199.971 37.3463H195.83L202.177 27.5773L195.83 18.3362H200.024C201.19 18.3362 202.274 18.9323 202.9 19.9163L205.208 23.5472L207.588 19.8873C208.216 18.9203 209.291 18.3362 210.445 18.3362H214.591L208.148 27.8412L214.591 37.3463H210.405C209.237 37.3463 208.15 36.6162 207.526 35.6302ZM125.42 21.4482C126.053 20.4852 126.843 19.7273 127.789 19.1743C128.741 18.6163 129.795 18.3373 130.952 18.3373V24.0303H129.471C128.123 24.0303 127.11 24.3193 126.431 24.8983C125.757 25.4763 125.42 26.4883 125.42 27.9323V37.3412H120.02V18.5212H122.493C124.11 18.5212 125.42 19.8312 125.42 21.4482ZM83.0047 24.7563C83.8233 23.9393 84.8116 23.5312 85.9693 23.5312C87.1272 23.5312 88.1153 23.9393 88.9342 24.7563C89.7528 25.5723 90.1621 26.5583 90.1621 27.7123C90.1621 28.8673 89.7528 29.8523 88.9342 30.6693C88.1153 31.4853 87.1272 31.8932 85.9693 31.8932C84.8116 31.8932 83.8233 31.4853 83.0047 30.6693C82.186 29.8523 81.7766 28.8673 81.7766 27.7123C81.7766 26.5583 82.186 25.5723 83.0047 24.7563ZM69.2351 27.8083H69.2353C69.2307 28.9303 68.8293 29.8893 68.0312 30.6833C67.2284 31.4833 66.2596 31.8823 65.1243 31.8823C63.9891 31.8823 63.0201 31.4833 62.2174 30.6833C61.4145 29.8843 61.0132 28.9192 61.0132 27.7892V27.7783C61.0201 26.6513 61.4215 25.6893 62.2172 24.8903C63.0199 24.0843 63.9889 23.6813 65.1241 23.6813C66.2594 23.6813 67.2285 24.0843 68.0311 24.8903C68.8339 25.6963 69.2351 26.6683 69.2351 27.8083ZM139.41 30.6833C138.612 29.8893 138.211 28.9303 138.206 27.8083C138.206 26.6683 138.608 25.6963 139.411 24.8903C140.213 24.0843 141.182 23.6813 142.317 23.6813C143.453 23.6813 144.422 24.0843 145.224 24.8903C146.02 25.6893 146.421 26.6513 146.428 27.7783V27.7892C146.428 28.9192 146.027 29.8843 145.224 30.6833C144.422 31.4833 143.453 31.8823 142.317 31.8823C141.182 31.8823 140.213 31.4833 139.41 30.6833ZM103.963 30.6833C103.163 29.8863 102.761 28.9253 102.759 27.7993C102.761 26.6633 103.162 25.6943 103.963 24.8903C104.766 24.0843 105.735 23.6813 106.87 23.6813C108.005 23.6813 108.974 24.0843 109.777 24.8903C110.577 25.6943 110.979 26.6633 110.981 27.7983C110.979 28.9253 110.577 29.8863 109.777 30.6833C108.974 31.4833 108.005 31.8832 106.87 31.8832C105.735 31.8832 104.766 31.4833 103.963 30.6833Z"
    fill="black" />
  <defs>
    <linearGradient id="paint0_linear_4425_128587" x1="27.6402" y1="11.406" x2="11.6328" y2="11.406"
      gradientUnits="userSpaceOnUse">
      <stop offset="0.05016" stop-color="#FF68CF" />
      <stop offset="0.994774" stop-color="#FF9059" />
    </linearGradient>
    <linearGradient id="paint1_linear_4425_128587" x1="24.6932" y1="30.777" x2="-1.12588e-05" y2="0.63689"
      gradientUnits="userSpaceOnUse">
      <stop stop-color="#FF68CF" />
      <stop offset="0.483568" stop-color="#7B2FFF" />
      <stop offset="1" stop-color="#00CFFF" />
    </linearGradient>
  </defs>
</svg>