<svg width="24" height="24" viewBox="0 0 24 24" fill="currentColor" xmlns="http://www.w3.org/2000/svg">
  <path
    d="M11.467 3.75997C11.2718 3.56471 10.9552 3.56471 10.7599 3.75997C10.5647 3.95523 10.5647 4.27182 10.7599 4.46708L12.3002 6.00739C12.2008 6.00249 12.1007 6.00001 12 6.00001C8.68629 6.00001 6 8.6863 6 12C6 15.3137 8.68629 18 12 18C15.1454 18 17.7255 15.5797 17.9795 12.4999C18.0022 12.2247 17.7761 12 17.5 12V12C17.2239 12 17.0026 12.2245 16.9754 12.4993C16.7248 15.0263 14.5929 17 12 17C9.23858 17 7 14.7614 7 12C7 9.23859 9.23858 7.00001 12 7.00001C12.0957 7.00001 12.1907 7.00269 12.2849 7.00796L10.7599 8.53294C10.5647 8.7282 10.5647 9.04479 10.7599 9.24005C10.9552 9.43531 11.2718 9.43531 11.467 9.24005L13.8535 6.85356C14.0488 6.6583 14.0488 6.34172 13.8535 6.14646L11.467 3.75997Z"
    fill="currentColor" />
</svg>