<svg width="64" height="64" viewBox="0 0 64 64" fill="none" xmlns="http://www.w3.org/2000/svg">
  <path
    d="M49 0H15C6.71573 0 0 6.71573 0 15V49C0 57.2843 6.71573 64 15 64H49C57.2843 64 64 57.2843 64 49V15C64 6.71573 57.2843 0 49 0Z"
    fill="white" />
  <path fill-rule="evenodd" clip-rule="evenodd"
    d="M26.7266 32.0032C27.014 31.5502 27.356 31.1203 27.753 30.7133C29.1901 29.2403 30.9249 28.5043 32.9574 28.5043C34.9897 28.5043 36.7246 29.2403 38.1616 30.7133C39.5988 32.1853 40.3173 33.9632 40.3173 36.0452H50.1307C50.1307 31.1862 48.4541 27.0393 45.1008 23.6033C41.7474 20.1673 37.6997 18.4492 32.9574 18.4492C30.7268 18.4492 28.65 18.8292 26.7266 19.5892V32.0032Z"
    fill="url(#paint0_linear_4425_128718)" />
  <path fill-rule="evenodd" clip-rule="evenodd"
    d="M40.3224 36.0103C40.3224 38.0763 39.6039 39.8393 38.1668 41.3003C36.7297 42.7613 34.9949 43.4913 32.9625 43.4913C30.9301 43.4913 29.1953 42.761 27.7581 41.3003C26.321 39.8393 25.6025 38.0763 25.6025 36.0103L25.6033 18.1333C25.6033 12.7133 21.2103 8.32031 15.7906 8.32031L15.7891 36.0103C15.7895 40.8303 17.4661 44.9453 20.819 48.3533C24.1724 51.7623 28.2202 53.4663 32.9625 53.4663C37.7048 53.4663 41.7525 51.7623 45.1059 48.3533C48.4592 44.9453 50.1358 40.8303 50.1358 36.0103V35.7453H40.3224V36.0103Z"
    fill="url(#paint1_linear_4425_128718)" />
  <defs>
    <linearGradient id="paint0_linear_4425_128718" x1="41.7823" y1="18.4494" x2="26.7266" y2="18.4494"
      gradientUnits="userSpaceOnUse">
      <stop offset="0.05016" stop-color="#FF68CF" />
      <stop offset="0.994774" stop-color="#FF9059" />
    </linearGradient>
    <linearGradient id="paint1_linear_4425_128718" x1="39.0143" y1="36.6683" x2="15.7891" y2="8.32007"
      gradientUnits="userSpaceOnUse">
      <stop stop-color="#FF68CF" />
      <stop offset="0.483568" stop-color="#7B2FFF" />
      <stop offset="1" stop-color="#00CFFF" />
    </linearGradient>
  </defs>
</svg>